<?xml version="1.0" encoding="UTF-8" standalone="no"?>
<!-- Created with Inkscape (http://www.inkscape.org/) -->

<svg
   xmlns:dc="http://purl.org/dc/elements/1.1/"
   xmlns:cc="http://creativecommons.org/ns#"
   xmlns:rdf="http://www.w3.org/1999/02/22-rdf-syntax-ns#"
   xmlns:svg="http://www.w3.org/2000/svg"
   xmlns="http://www.w3.org/2000/svg"
   xmlns:sodipodi="http://sodipodi.sourceforge.net/DTD/sodipodi-0.dtd"
   xmlns:inkscape="http://www.inkscape.org/namespaces/inkscape"
   width="154.10309mm"
   height="66.86335mm"
   viewBox="0 0 154.10309 66.86335"
   version="1.1"
   id="svg8"
   inkscape:version="0.92.2 (5c3e80d, 2017-08-06)"
   sodipodi:docname="scale-wf-one.svg">
  <defs
     id="defs2">
    <marker
       inkscape:stockid="Club"
       orient="auto"
       refY="0"
       refX="0"
       id="Club"
       style="overflow:visible"
       inkscape:isstock="true">
      <path
         id="path1112"
         d="m -1.5971367,-7.0977635 c -1.8892507,0 -3.426382,1.5371314 -3.426382,3.4263822 0,0.6566798 0.2383531,1.2269257 0.5594092,1.7481542 -0.038751,0.032111 -0.079672,0.058463 -0.1165436,0.093235 -0.6224234,-0.8549928 -1.5893983,-1.4451409 -2.7271199,-1.4451409 -1.8892515,-1e-7 -3.426382,1.5371314 -3.426382,3.42638214 0,1.88925076 1.5371305,3.42638216 3.426382,3.42638216 0.9934462,0 1.868619,-0.4420611 2.4940326,-1.1188187 -0.124687,0.3548915 -0.2097783,0.7214874 -0.2097783,1.1188187 0,1.8892506 1.5371313,3.4263822 3.426382,3.4263822 1.88925064,0 3.4263821,-1.5371316 3.4263821,-3.4263822 0,-0.7933959 -0.3155586,-1.4938285 -0.7691878,-2.0744763 C 2.4152718,1.7663868 3.7718375,2.2973711 4.7661444,3.8340272 4.0279463,3.0958289 3.5540908,1.7534117 3.5540908,-0.05852936 l -0.6293354,-0.04661745 0.5827179,-0.0233087 c 0,-1.81194107 0.4505466,-3.15435827 1.188745,-3.89255657 -0.9590906,1.4822308 -2.2571634,2.0263625 -3.5662345,2.3075635 0.4041964,-0.5619092 0.6992616,-1.213407 0.6992616,-1.9579327 0,-1.8892506 -1.53713146,-3.4263822 -3.4263821,-3.4263822 z"
         style="fill-rule:evenodd;stroke:#000000;stroke-width:0.7458791pt"
         transform="scale(0.6)"
         inkscape:connector-curvature="0" />
    </marker>
  </defs>
  <sodipodi:namedview
     id="base"
     pagecolor="#ffffff"
     bordercolor="#666666"
     borderopacity="1.0"
     inkscape:pageopacity="0.0"
     inkscape:pageshadow="2"
     inkscape:zoom="1.5819056"
     inkscape:cx="193.32612"
     inkscape:cy="125.46195"
     inkscape:document-units="mm"
     inkscape:current-layer="g1755"
     showgrid="false"
     fit-margin-top="0"
     fit-margin-left="0"
     fit-margin-right="0"
     fit-margin-bottom="0"
     inkscape:window-width="1920"
     inkscape:window-height="1006"
     inkscape:window-x="0"
     inkscape:window-y="36"
     inkscape:window-maximized="1" />
  <metadata
     id="metadata5">
    <rdf:RDF>
      <cc:Work
         rdf:about="">
        <dc:format>image/svg+xml</dc:format>
        <dc:type
           rdf:resource="http://purl.org/dc/dcmitype/StillImage" />
        <dc:title />
      </cc:Work>
    </rdf:RDF>
  </metadata>
  <g
     inkscape:label="Layer 1"
     inkscape:groupmode="layer"
     id="layer1"
     transform="translate(-16.625904,-184.10144)">
    <g
       id="g1514">
      <g
         style="fill:#1751b1;fill-opacity:0.875;stroke:#1c2218;stroke-opacity:1"
         transform="matrix(0.13470191,0.00661264,-0.00661264,0.13470191,75.475254,210.39174)"
         id="g871">
        <path
           style="opacity:0.45400002;fill:#1751b1;fill-opacity:0.875;stroke:#1c2218;stroke-width:2.5;stroke-linecap:round;stroke-linejoin:round;stroke-miterlimit:4;stroke-dasharray:none;stroke-opacity:1"
           id="path817"
           sodipodi:type="arc"
           sodipodi:cx="-365.12497"
           sodipodi:cy="166.9762"
           sodipodi:rx="24.946428"
           sodipodi:ry="24.946428"
           sodipodi:start="2.1755529"
           sodipodi:end="2.1722717"
           sodipodi:open="true"
           d="m -379.30856,187.49814 a 24.946428,24.946428 0 0 1 -6.34998,-34.68869 24.946428,24.946428 0 0 1 34.68347,-6.37844 24.946428,24.946428 0 0 1 6.40689,34.67823 24.946428,24.946428 0 0 1 -34.67296,6.43533" />
        <path
           style="opacity:0.45400002;fill:#1751b1;fill-opacity:0.875;stroke:#1c2218;stroke-width:2.5;stroke-linecap:round;stroke-linejoin:round;stroke-miterlimit:4;stroke-dasharray:none;stroke-opacity:1"
           id="path817-6"
           sodipodi:type="arc"
           sodipodi:cx="-336.3988"
           sodipodi:cy="21.833313"
           sodipodi:rx="24.946428"
           sodipodi:ry="24.946428"
           sodipodi:start="2.1755529"
           sodipodi:end="2.1722717"
           sodipodi:open="true"
           d="m -350.58239,42.355256 a 24.946428,24.946428 0 0 1 -6.34998,-34.6886913 24.946428,24.946428 0 0 1 34.68347,-6.3784366 24.946428,24.946428 0 0 1 6.40688,34.6782269 24.946428,24.946428 0 0 1 -34.67296,6.435329" />
        <path
           style="opacity:0.45400002;fill:#1751b1;fill-opacity:0.875;stroke:#1c2218;stroke-width:2.5;stroke-linecap:round;stroke-linejoin:round;stroke-miterlimit:4;stroke-dasharray:none;stroke-opacity:1"
           id="path817-8"
           sodipodi:type="arc"
           sodipodi:cx="-287.26193"
           sodipodi:cy="234.25594"
           sodipodi:rx="24.946428"
           sodipodi:ry="24.946428"
           sodipodi:start="2.1755529"
           sodipodi:end="2.1722717"
           sodipodi:open="true"
           d="m -301.44552,254.77788 a 24.946428,24.946428 0 0 1 -6.34998,-34.68869 24.946428,24.946428 0 0 1 34.68347,-6.37844 24.946428,24.946428 0 0 1 6.40688,34.67823 24.946428,24.946428 0 0 1 -34.67296,6.43533" />
        <path
           style="opacity:0.45400002;fill:#1751b1;fill-opacity:0.875;stroke:#1c2218;stroke-width:2.5;stroke-linecap:round;stroke-linejoin:round;stroke-miterlimit:4;stroke-dasharray:none;stroke-opacity:1"
           id="path817-5"
           sodipodi:type="arc"
           sodipodi:cx="-333.375"
           sodipodi:cy="99.696404"
           sodipodi:rx="24.946428"
           sodipodi:ry="24.946428"
           sodipodi:start="2.1755529"
           sodipodi:end="2.1722717"
           sodipodi:open="true"
           d="m -347.55859,120.21835 a 24.946428,24.946428 0 0 1 -6.34998,-34.688695 24.946428,24.946428 0 0 1 34.68347,-6.378436 24.946428,24.946428 0 0 1 6.40689,34.678231 24.946428,24.946428 0 0 1 -34.67296,6.43533" />
        <path
           style="opacity:0.45400002;fill:#1751b1;fill-opacity:0.875;stroke:#1c2218;stroke-width:2.5;stroke-linecap:round;stroke-linejoin:round;stroke-miterlimit:4;stroke-dasharray:none;stroke-opacity:1"
           id="path817-0"
           sodipodi:type="arc"
           sodipodi:cx="-291.04169"
           sodipodi:cy="161.68449"
           sodipodi:rx="24.946428"
           sodipodi:ry="24.946428"
           sodipodi:start="2.1755529"
           sodipodi:end="2.1722717"
           sodipodi:open="true"
           d="m -305.22527,182.20644 a 24.946428,24.946428 0 0 1 -6.34999,-34.68869 24.946428,24.946428 0 0 1 34.68347,-6.37844 24.946428,24.946428 0 0 1 6.40689,34.67823 24.946428,24.946428 0 0 1 -34.67296,6.43533" />
        <path
           style="fill:#1751b1;fill-opacity:0.875;stroke:#1c2218;stroke-width:2.20000005;stroke-linecap:butt;stroke-linejoin:miter;stroke-miterlimit:4;stroke-dasharray:none;stroke-opacity:1"
           d="M -334.13094,45.267857 V 73.994046"
           id="path854"
           inkscape:connector-curvature="0" />
        <path
           style="fill:#1751b1;fill-opacity:0.875;stroke:#1c2218;stroke-width:2.20000005;stroke-linecap:butt;stroke-linejoin:miter;stroke-miterlimit:4;stroke-dasharray:none;stroke-opacity:1"
           d="m -319.76785,120.86309 14.3631,21.16667"
           id="path856"
           inkscape:connector-curvature="0" />
        <path
           style="fill:#1751b1;fill-opacity:0.875;stroke:#1c2218;stroke-width:2.20000005;stroke-linecap:butt;stroke-linejoin:miter;stroke-miterlimit:4;stroke-dasharray:none;stroke-opacity:1"
           d="m -347.49118,120.26477 -11.58621,23.2769"
           id="path858"
           inkscape:connector-curvature="0" />
        <path
           style="fill:#1751b1;fill-opacity:0.875;stroke:#1c2218;stroke-width:2.20000005;stroke-linecap:butt;stroke-linejoin:miter;stroke-miterlimit:4;stroke-dasharray:none;stroke-opacity:1"
           d="m -288.77381,187.3869 0.75596,22.67857"
           id="path860"
           inkscape:connector-curvature="0" />
      </g>
      <g
         id="g1755">
        <g
           id="g1861"
           transform="translate(-0.9461428,2.9566978)">
          <rect
             style="opacity:1;vector-effect:none;fill:#dec987;fill-opacity:1;stroke:none;stroke-width:0.35639992;stroke-linecap:round;stroke-linejoin:miter;stroke-miterlimit:4;stroke-dasharray:none;stroke-dashoffset:0;stroke-opacity:1"
             id="rect1747"
             width="6.744463"
             height="4.8888273"
             x="35.052719"
             y="201.41127"
             rx="6.9979019"
             ry="1" />
          <rect
             ry="1"
             style="opacity:1;vector-effect:none;fill:#dec987;fill-opacity:1;stroke:none;stroke-width:0.50903779;stroke-linecap:round;stroke-linejoin:miter;stroke-miterlimit:4;stroke-dasharray:0.50903778, 1.01807555;stroke-dashoffset:0;stroke-opacity:1"
             id="rect1743"
             width="5.0875974"
             height="8.5330973"
             x="35.793167"
             y="201.452"
             rx="14.770656" />
          <path
             style="opacity:1;vector-effect:none;fill:#dec987;fill-opacity:1;stroke:#ffffff;stroke-width:0.35842553;stroke-linecap:round;stroke-linejoin:miter;stroke-miterlimit:4;stroke-dasharray:none;stroke-dashoffset:0;stroke-opacity:1"
             id="path1741"
             sodipodi:type="arc"
             sodipodi:cx="38.371391"
             sodipodi:cy="199.89755"
             sodipodi:rx="2.0676348"
             sodipodi:ry="1.7647351"
             sodipodi:start="0"
             sodipodi:end="6.2495877"
             sodipodi:open="true"
             d="m 40.439026,199.89755 a 2.0676348,1.7647351 0 0 1 -2.050268,1.76468 2.0676348,1.7647351 0 0 1 -2.08471,-1.73503 2.0676348,1.7647351 0 0 1 2.015248,-1.79382 2.0676348,1.7647351 0 0 1 2.118563,1.70489" />
        </g>
        <rect
           ry="0.2"
           rx="14.770656"
           y="211.49994"
           x="37.136696"
           height="1.6115178"
           width="0.59158111"
           id="rect1749"
           style="opacity:1;vector-effect:none;fill:#ffffff;fill-opacity:1;stroke:none;stroke-width:0.37279782;stroke-linecap:round;stroke-linejoin:miter;stroke-miterlimit:4;stroke-dasharray:none;stroke-dashoffset:0;stroke-opacity:1" />
      </g>
    </g>
  </g>
</svg>
