<?xml version="1.0" encoding="UTF-8" standalone="no"?>
<!-- Created with Inkscape (http://www.inkscape.org/) -->

<svg
   xmlns:dc="http://purl.org/dc/elements/1.1/"
   xmlns:cc="http://creativecommons.org/ns#"
   xmlns:rdf="http://www.w3.org/1999/02/22-rdf-syntax-ns#"
   xmlns:svg="http://www.w3.org/2000/svg"
   xmlns="http://www.w3.org/2000/svg"
   xmlns:sodipodi="http://sodipodi.sourceforge.net/DTD/sodipodi-0.dtd"
   xmlns:inkscape="http://www.inkscape.org/namespaces/inkscape"
   width="95.999283mm"
   height="112.34853mm"
   viewBox="0 0 95.999283 112.34853"
   version="1.1"
   id="svg1909"
   inkscape:version="0.92.2 (5c3e80d, 2017-08-06)"
   sodipodi:docname="tick.svg">
  <defs
     id="defs1903" />
  <sodipodi:namedview
     id="base"
     pagecolor="#ffffff"
     bordercolor="#666666"
     borderopacity="1.0"
     inkscape:pageopacity="0.0"
     inkscape:pageshadow="2"
     inkscape:zoom="0.35"
     inkscape:cx="-825.7269"
     inkscape:cy="180.8836"
     inkscape:document-units="mm"
     inkscape:current-layer="layer1"
     showgrid="false"
     fit-margin-top="0"
     fit-margin-left="0"
     fit-margin-right="0"
     fit-margin-bottom="0"
     inkscape:window-width="1920"
     inkscape:window-height="1006"
     inkscape:window-x="0"
     inkscape:window-y="36"
     inkscape:window-maximized="1" />
  <metadata
     id="metadata1906">
    <rdf:RDF>
      <cc:Work
         rdf:about="">
        <dc:format>image/svg+xml</dc:format>
        <dc:type
           rdf:resource="http://purl.org/dc/dcmitype/StillImage" />
        <dc:title></dc:title>
      </cc:Work>
    </rdf:RDF>
  </metadata>
  <g
     inkscape:label="Layer 1"
     inkscape:groupmode="layer"
     id="layer1"
     transform="translate(-59.345598,-84.343593)">
    <path
       style="opacity:1;vector-effect:none;fill:#008000;fill-opacity:1;stroke:#000000;stroke-width:0.08912905px;stroke-linecap:butt;stroke-linejoin:miter;stroke-miterlimit:4;stroke-dasharray:none;stroke-dashoffset:0;stroke-opacity:1"
       id="path1873"
       d="m 66.609478,154.84648 c 0.81075,1.7122 1.99505,3.10822 3.33261,4.43674 3.61788,3.21628 7.0094,6.66437 10.24714,10.24823 3.93125,4.51666 7.032169,9.63747 10.46128,14.51473 1.48586,2.06255 2.976721,4.12405 4.50972,6.1532 0.345299,0.45703 0.69316,0.91255 1.057621,1.35496 0.262459,0.31862 1.17161,0.7033 0.82223,0.92702 -1.812451,1.16058 -4.00866,1.59786 -6.01296,2.39679 0.812789,-1.33687 1.679908,-2.64323 2.43841,-4.01062 1.989868,-3.58721 5.335249,-10.43684 7.106861,-13.90807 3.45248,-6.76465 7.05393,-13.433 10.78539,-20.05142 0.83937,-1.45762 1.67043,-2.91992 2.51817,-4.37285 1.26566,-2.16922 2.45991,-4.09073 3.6771,-6.26843 1.67246,-2.99223 3.13971,-6.08193 4.62734,-9.16519 4.28574,-9.16341 8.32231,-18.43361 13.16539,-27.33141 1.89281,-3.67076 4.41896,-6.97411 6.48956,-10.537014 0.68346,-1.11936 1.12448,-2.35131 1.67766,-3.53238 0.45869,-0.91892 0.86314,-1.86284 1.55385,-2.63854 0.59425,-0.64377 1.07237,-1.35424 1.48587,-2.11929 0.56029,-0.95291 0.87154,-2.00159 1.21812,-3.03946 0,0 7.50122,-3.47701 7.50122,-3.47701 v 0 c -0.33417,1.06113 -0.60666,2.1574 -1.16079,3.13319 -0.36261,0.84727 -0.80382,1.61649 -1.38882,2.32716 -0.10265,0.11408 -0.20531,0.22815 -0.30797,0.34222 -0.11671,0.0979 -0.24722,0.18176 -0.35013,0.29361 -0.46673,0.50723 -0.6454,1.23175 -0.98683,1.81504 -0.65651,1.16688 -1.02688,2.45614 -1.73629,3.59815 -0.69463,1.23432 -1.49,2.34543 -2.29851,3.51009 -1.62579,2.341994 -3.10858,4.776004 -4.60412,7.199074 -0.71202,1.25036 -1.45251,2.48544 -2.13609,3.75107 -4.1195,7.62702 -7.40535,15.64431 -11.00243,23.51221 -1.42947,3.10202 -2.82869,6.21974 -4.5211,9.19545 -1.16235,2.0437 -2.69429,4.39554 -3.90873,6.37107 -0.90721,1.47572 -1.79784,2.96125 -2.69674,4.44188 -3.19671,5.43002 -4.00582,6.68596 -7.10963,12.50103 -4.45071,8.33857 -8.39734,16.91593 -12.520962,25.41185 -2.844409,1.59945 -5.506839,3.56368 -8.53326,4.79835 -0.394869,0.16109 -0.53291,-0.65788 -0.78718,-0.99593 -0.34684,-0.46117 -0.682271,-0.93059 -1.01573,-1.40121 -1.469229,-2.0735 -2.92266,-4.15795 -4.40493,-6.22269 -3.39773,-4.85949 -6.52683,-9.92336 -10.43302,-14.41681 -3.26252,-3.5699 -6.67508,-7.00283 -10.42086,-10.08843 -1.47525,-1.41675 -2.5794,-2.82082 -3.54243,-4.62148 0,0 7.20397,-4.03488 7.20397,-4.03488 z"
       inkscape:connector-curvature="0" />
  </g>
</svg>
