<svg id="レイヤー_1" data-name="レイヤー 1" xmlns="http://www.w3.org/2000/svg" viewBox="0 0 48 48"><defs><style>.cls-1{fill:#ef7b51;}.cls-2{fill:#2b2727;}</style></defs><title>dna</title><path class="cls-1" d="M28.45,21a1,1,0,0,1-.7-.3l-3-3a1,1,0,0,1,0-1.42,1,1,0,0,1,1.41,0l3,3A1,1,0,0,1,28.45,21Z"/><path class="cls-1" d="M28.08,24.83a1,1,0,0,1-.71-.3l-5.6-5.6a1,1,0,0,1,1.41-1.41l5.61,5.6a1,1,0,0,1-.71,1.71Z"/><path class="cls-1" d="M26.39,27.39a1,1,0,0,1-.71-.29l-6.47-6.48a1,1,0,1,1,1.41-1.41l6.48,6.47a1,1,0,0,1,0,1.42A1,1,0,0,1,26.39,27.39Z"/><path class="cls-1" d="M23.83,29.08a1,1,0,0,1-.71-.29l-5.6-5.61a1,1,0,0,1,1.41-1.41l5.6,5.6a1,1,0,0,1,0,1.42A1,1,0,0,1,23.83,29.08Z"/><path class="cls-1" d="M20,29.52a1,1,0,0,1-.71-.29l-3.09-3.09a1,1,0,0,1,0-1.41,1,1,0,0,1,1.42,0l3.09,3.09a1,1,0,0,1-.71,1.7Z"/><path class="cls-1" d="M39.21,17.09a1,1,0,0,1-.7-.29L33,11.33a1,1,0,0,1,0-1.41,1,1,0,0,1,1.42,0l5.46,5.46a1,1,0,0,1,0,1.42A1,1,0,0,1,39.21,17.09Z"/><path class="cls-1" d="M36.25,18.38a1,1,0,0,1-.71-.29l-2.87-2.88a1,1,0,0,1,1.41-1.41L37,16.67a1,1,0,0,1,0,1.42A1,1,0,0,1,36.25,18.38Z"/><path class="cls-1" d="M14.48,34.35a1,1,0,0,1-.71-.29L11,31.33a1,1,0,1,1,1.42-1.42l2.73,2.74a1,1,0,0,1,0,1.41A1,1,0,0,1,14.48,34.35Z"/><path class="cls-1" d="M14.32,38.44a1,1,0,0,1-.71-.29L8.08,32.62a1,1,0,0,1,0-1.42,1,1,0,0,1,1.41,0L15,36.74a1,1,0,0,1,0,1.41A1,1,0,0,1,14.32,38.44Z"/><path class="cls-2" d="M14.7,43.08a1,1,0,0,1-.7-.29,1,1,0,0,1,0-1.42c3.07-3.07,2.63-6.63,2.16-10.4s-1-8.3,2.74-12.07c3.06-3,6.47-3.24,9.41-3a1,1,0,0,1-.15,2c-2.61-.19-5.37,0-7.84,2.45-3.08,3.07-2.64,6.63-2.17,10.4s1,8.3-2.74,12.07A1,1,0,0,1,14.7,43.08Z"/><path class="cls-2" d="M35,18.5c-.5,0-1,0-1.46-.06a1,1,0,0,1-.93-1.06,1,1,0,0,1,1.07-.93c2.55.18,5.26,0,7.71-2.45a1,1,0,0,1,1.42,0,1,1,0,0,1,0,1.41A10.39,10.39,0,0,1,35,18.5Z"/><path class="cls-2" d="M5.92,34.3a1,1,0,0,1-.71-.3,1,1,0,0,1,0-1.41c3-3,6.39-3.23,9.28-3a1,1,0,1,1-.14,2c-2.55-.17-5.26,0-7.72,2.45A1,1,0,0,1,5.92,34.3Z"/><path class="cls-2" d="M21.3,32.19c-.47,0-.94,0-1.4,0a1,1,0,0,1,.13-2c2.53.17,5.21,0,7.65-2.46,3.08-3.07,2.64-6.63,2.17-10.4s-1-8.3,2.74-12.07a1,1,0,0,1,1.41,0,1,1,0,0,1,0,1.42C30.93,9.7,31.37,13.26,31.84,17s1,8.3-2.74,12.07A10.39,10.39,0,0,1,21.3,32.19Z"/><circle class="cls-1" cx="12.05" cy="7.53" r="1.5"/><circle class="cls-1" cx="18.26" cy="10.36" r="1"/><circle class="cls-1" cx="11.55" cy="14.61" r="0.5"/><circle class="cls-1" cx="35.95" cy="34.76" r="1.5"/><circle class="cls-1" cx="33.11" cy="40.97" r="1"/><circle class="cls-1" cx="28.87" cy="34.26" r="0.5"/></svg>