<?xml version="1.0" encoding="UTF-8" standalone="no"?>
<!-- Created with Inkscape (http://www.inkscape.org/) -->

<svg
   xmlns:dc="http://purl.org/dc/elements/1.1/"
   xmlns:cc="http://creativecommons.org/ns#"
   xmlns:rdf="http://www.w3.org/1999/02/22-rdf-syntax-ns#"
   xmlns:svg="http://www.w3.org/2000/svg"
   xmlns="http://www.w3.org/2000/svg"
   xmlns:sodipodi="http://sodipodi.sourceforge.net/DTD/sodipodi-0.dtd"
   xmlns:inkscape="http://www.inkscape.org/namespaces/inkscape"
   width="20.671431mm"
   height="20.293482mm"
   viewBox="0 0 20.671431 20.293482"
   version="1.1"
   id="svg957"
   inkscape:version="0.92.2 (5c3e80d, 2017-08-06)"
   sodipodi:docname="scale-system.svg">
  <defs
     id="defs951" />
  <sodipodi:namedview
     id="base"
     pagecolor="#ffffff"
     bordercolor="#666666"
     borderopacity="1.0"
     inkscape:pageopacity="0.0"
     inkscape:pageshadow="2"
     inkscape:zoom="1.4"
     inkscape:cx="183.70698"
     inkscape:cy="-18.792996"
     inkscape:document-units="mm"
     inkscape:current-layer="layer1"
     showgrid="false"
     fit-margin-top="0"
     fit-margin-left="0"
     fit-margin-right="0"
     fit-margin-bottom="0"
     inkscape:window-width="1920"
     inkscape:window-height="1048"
     inkscape:window-x="1920"
     inkscape:window-y="0"
     inkscape:window-maximized="1" />
  <metadata
     id="metadata954">
    <rdf:RDF>
      <cc:Work
         rdf:about="">
        <dc:format>image/svg+xml</dc:format>
        <dc:type
           rdf:resource="http://purl.org/dc/dcmitype/StillImage" />
        <dc:title></dc:title>
      </cc:Work>
    </rdf:RDF>
  </metadata>
  <g
     inkscape:label="Layer 1"
     inkscape:groupmode="layer"
     id="layer1"
     transform="translate(-75.275891,-123.56754)">
    <path
       style="opacity:0.45400002;fill:#bf2b1e;fill-opacity:1;stroke:#870b00;stroke-width:0.44539914;stroke-linecap:round;stroke-linejoin:round;stroke-miterlimit:4;stroke-dasharray:none;stroke-opacity:1"
       id="path817"
       sodipodi:type="arc"
       sodipodi:cx="93.565712"
       sodipodi:cy="129.09286"
       sodipodi:rx="4.444447"
       sodipodi:ry="4.444447"
       sodipodi:start="2.1755529"
       sodipodi:end="2.1722717"
       sodipodi:open="true"
       d="m 91.038769,132.74905 a 4.444447,4.444447 0 0 1 -1.131311,-6.18013 4.444447,4.444447 0 0 1 6.179195,-1.13638 4.444447,4.444447 0 0 1 1.141449,6.17826 4.444447,4.444447 0 0 1 -6.177323,1.14652"
       transform="rotate(2.810446)" />
    <path
       style="opacity:0.45400002;fill:#1e9cbf;fill-opacity:1;stroke:#005587;stroke-width:0.33716032;stroke-linecap:round;stroke-linejoin:round;stroke-miterlimit:4;stroke-dasharray:none;stroke-opacity:1"
       id="path817-9"
       sodipodi:type="arc"
       sodipodi:cx="85.888985"
       sodipodi:cy="123.03638"
       sodipodi:rx="3.3643782"
       sodipodi:ry="3.3643782"
       sodipodi:start="2.1755529"
       sodipodi:end="2.1722717"
       sodipodi:open="true"
       d="m 83.976128,125.80405 a 3.3643782,3.3643782 0 0 1 -0.856385,-4.67826 3.3643782,3.3643782 0 0 1 4.677556,-0.86022 3.3643782,3.3643782 0 0 1 0.864059,4.67685 3.3643782,3.3643782 0 0 1 -4.676139,0.86789"
       transform="rotate(2.810446)" />
    <path
       style="opacity:0.45400002;fill:#201ebf;fill-opacity:1;stroke:#000f87;stroke-width:0.33716032;stroke-linecap:round;stroke-linejoin:round;stroke-miterlimit:4;stroke-dasharray:none;stroke-opacity:1"
       id="path817-3"
       sodipodi:type="arc"
       sodipodi:cx="85.380707"
       sodipodi:cy="131.95447"
       sodipodi:rx="3.3643782"
       sodipodi:ry="3.3643782"
       sodipodi:start="2.1755529"
       sodipodi:end="2.1722717"
       sodipodi:open="true"
       d="m 83.46785,134.72214 a 3.3643782,3.3643782 0 0 1 -0.856385,-4.67826 3.3643782,3.3643782 0 0 1 4.677556,-0.86022 3.3643782,3.3643782 0 0 1 0.864059,4.67685 3.3643782,3.3643782 0 0 1 -4.676139,0.86789"
       transform="rotate(2.810446)" />
    <path
       style="opacity:0.45400002;fill:#bfb21e;fill-opacity:1;stroke:#878000;stroke-width:0.33716032;stroke-linecap:round;stroke-linejoin:round;stroke-miterlimit:4;stroke-dasharray:none;stroke-opacity:1"
       id="path817-0"
       sodipodi:type="arc"
       sodipodi:cx="98.749077"
       sodipodi:cy="126.75703"
       sodipodi:rx="3.3643782"
       sodipodi:ry="3.3643782"
       sodipodi:start="2.1755529"
       sodipodi:end="2.1722717"
       sodipodi:open="true"
       d="m 96.83622,129.5247 a 3.3643782,3.3643782 0 0 1 -0.856385,-4.67826 3.3643782,3.3643782 0 0 1 4.677555,-0.86022 3.3643782,3.3643782 0 0 1 0.86406,4.67685 3.3643782,3.3643782 0 0 1 -4.676139,0.86789"
       transform="rotate(2.810446)" />
    <path
       style="opacity:0.45400002;fill:#b81ebf;fill-opacity:1;stroke:#87007e;stroke-width:0.24696137;stroke-linecap:round;stroke-linejoin:round;stroke-miterlimit:4;stroke-dasharray:none;stroke-opacity:1"
       id="path817-6"
       sodipodi:type="arc"
       sodipodi:cx="93.001831"
       sodipodi:cy="136.87839"
       sodipodi:rx="2.4643216"
       sodipodi:ry="2.4643216"
       sodipodi:start="2.1755529"
       sodipodi:end="2.1722717"
       sodipodi:open="true"
       d="m 91.600712,138.90564 a 2.4643216,2.4643216 0 0 1 -0.62728,-3.42671 2.4643216,2.4643216 0 0 1 3.42619,-0.63009 2.4643216,2.4643216 0 0 1 0.632902,3.42567 2.4643216,2.4643216 0 0 1 -3.425153,0.63571"
       transform="rotate(2.810446)" />
    <path
       style="opacity:0.45400002;fill:#1ebf73;fill-opacity:1;stroke:#008748;stroke-width:0.23794147;stroke-linecap:round;stroke-linejoin:round;stroke-miterlimit:4;stroke-dasharray:none;stroke-opacity:1"
       id="path817-5"
       sodipodi:type="arc"
       sodipodi:cx="87.457581"
       sodipodi:cy="126.08144"
       sodipodi:rx="2.374316"
       sodipodi:ry="2.374316"
       sodipodi:start="2.1755529"
       sodipodi:end="2.1722717"
       sodipodi:open="true"
       d="m 86.107635,128.03465 a 2.374316,2.374316 0 0 1 -0.60437,-3.30155 2.374316,2.374316 0 0 1 3.301055,-0.60708 2.374316,2.374316 0 0 1 0.609785,3.30056 2.374316,2.374316 0 0 1 -3.300054,0.61249"
       transform="rotate(2.810446)" />
  </g>
</svg>
